# xmcd
#
# Track frame offsets: 
#        182
#        14322
#        32917
#        46850
#        59255
#        86357
#        98972
#        108575
#        120782
#        135632
#
# Disc length: 1971 seconds
#
# Revision: 4
# Processed by: cddbd v1.5.2PL0 Copyright (c) Steve Scherf et al.
# Submitted via: ExactAudioCopyFreeDBPlugin 1.0
#
DISCID=7607b10a
DTITLE=Various Artist - Rare Soul:  Beach Music Classics
DYEAR=1992
DGENRE=Soul
TTITLE0=Dionne Warwick - Do You Believe in Love at First Sight
TTITLE1=Candi Staton - Young Hearts Run Free
TTITLE2=Charles Wright and The Watts 103rd Street Rhythm Band - Love Lan
TTITLE2=d
TTITLE3=Robert John - You Don't Need a Gypsy
TTITLE4=The Spinners - Magic in the Moolight
TTITLE5=The Drifters - I've Got Sand in My Shoes
TTITLE6=Ruth Brown - Lucky Lips
TTITLE7=Joe Turner - Morning, Noon and Night
TTITLE8="Stick" McGhee - Drinkin' Wine, Spo-Dee-O-Dee
TTITLE9=Willie Tee - Walking Up a One Way Street
EXTD=YEAR: 1992
EXTT0=Dionne Warwick
EXTT1=Candi Staton
EXTT2=Charles Wright and The Watts
EXTT3=Robert John
EXTT4=The Spinners
EXTT5=The Drifters
EXTT6=Ruth Brown
EXTT7=Joe Turner
EXTT8=Stick McGhee
EXTT9=Willie Tee
PLAYORDER=
